<svg width="728" height="409" viewBox="0 0 728 409" fill="none" xmlns="http://www.w3.org/2000/svg">
<g filter="url(#filter0_d_491_3)">
<path d="M612.414 263.331C586.443 293.571 540.383 324.914 484.328 330.944C399.647 340.049 380.421 380.712 235.958 365.711C214.82 363.571 194.194 359.992 174.514 355.05C164.819 352.595 155.427 349.759 146.403 346.563C66.454 318.273 33.2495 266.956 41.1283 216.533C51.4443 150.223 131.393 124.374 182.857 109.596C234.321 94.8186 307.68 27.8827 449.912 41.9236C471.683 44.0251 492.911 47.6968 513.097 52.8525C559.287 64.7641 603.981 86.7634 626.25 115.589C627.927 117.758 629.495 119.962 630.957 122.2C659.545 165.953 647.823 222.117 612.414 263.331Z" fill="#FF6F31"/>
</g>
<g filter="url(#filter1_i_491_3)">
<path d="M232.031 177V132.2H253.599C257.78 132.2 261.385 132.883 264.415 134.248C267.487 135.613 269.855 137.576 271.519 140.136C273.183 142.653 274.015 145.64 274.015 149.096C274.015 152.552 273.183 155.539 271.519 158.056C269.855 160.573 267.487 162.536 264.415 163.944C261.385 165.309 257.78 165.992 253.599 165.992H240.415L247.135 159.528V177H232.031ZM247.135 161.192L240.415 154.344H252.639C254.729 154.344 256.265 153.875 257.247 152.936C258.271 151.997 258.783 150.717 258.783 149.096C258.783 147.475 258.271 146.195 257.247 145.256C256.265 144.317 254.729 143.848 252.639 143.848H240.415L247.135 137V161.192ZM292.417 148.84H312.385V159.72H292.417V148.84ZM293.441 165.608H315.841V177H278.593V132.2H315.009V143.592H293.441V165.608ZM349.488 177L338.352 156.008L350.384 148.968L366.512 177H349.488ZM321.584 177V132.2H336.688V177H321.584ZM332.336 160.808V148.904H349.296V160.808H332.336ZM351.856 156.2L337.968 154.792L350.832 132.2H366.576L351.856 156.2ZM374.234 177.832C373.295 177.832 372.292 177.768 371.226 177.64C370.159 177.512 369.028 177.299 367.834 177L368.602 164.904C369.199 165.032 369.754 165.096 370.266 165.096C371.93 165.096 373.167 164.413 373.978 163.048C374.788 161.683 375.343 159.848 375.642 157.544C375.94 155.197 376.132 152.573 376.218 149.672L376.794 132.2H414.618V177H399.77V140.712L403.034 143.912H386.714L389.658 140.52L389.402 149.096C389.274 153.405 388.975 157.331 388.506 160.872C388.079 164.371 387.332 167.4 386.266 169.96C385.199 172.477 383.684 174.419 381.722 175.784C379.802 177.149 377.306 177.832 374.234 177.832ZM418.755 177L438.339 132.2H453.187L472.771 177H457.155L442.691 139.368H448.579L434.115 177H418.755ZM430.403 169.192L434.243 158.312H454.851L458.691 169.192H430.403ZM476.906 177V132.2H489.322L507.242 161.448H500.714L518.122 132.2H530.538L530.666 177H516.906L516.778 152.936H518.954L507.05 172.968H500.394L487.978 152.936H490.666V177H476.906ZM534.755 177L554.339 132.2H569.187L588.771 177H573.155L558.691 139.368H564.579L550.115 177H534.755ZM546.403 169.192L550.243 158.312H570.851L574.691 169.192H546.403Z" fill="white"/>
</g>
<g filter="url(#filter2_i_491_3)">
<path d="M231.209 291V272.44L263.593 242.488C265.641 240.525 267.134 238.819 268.073 237.368C269.097 235.917 269.78 234.637 270.121 233.528C270.462 232.333 270.633 231.224 270.633 230.2C270.633 227.981 269.908 226.275 268.457 225.08C267.006 223.8 264.83 223.16 261.929 223.16C259.284 223.16 256.766 223.885 254.377 225.336C251.988 226.701 250.11 228.749 248.745 231.48L225.961 220.088C229.204 213.944 234.068 208.952 240.553 205.112C247.038 201.272 255.102 199.352 264.745 199.352C271.828 199.352 278.1 200.504 283.561 202.808C289.022 205.112 293.289 208.355 296.361 212.536C299.433 216.717 300.969 221.667 300.969 227.384C300.969 230.285 300.585 233.187 299.817 236.088C299.134 238.989 297.684 242.061 295.465 245.304C293.246 248.461 289.961 252.003 285.609 255.928L261.289 278.072L256.553 267.576H303.017V291H231.209ZM326.206 292.28C321.427 292.28 317.417 290.744 314.174 287.672C310.931 284.515 309.31 280.504 309.31 275.64C309.31 270.691 310.931 266.723 314.174 263.736C317.417 260.749 321.427 259.256 326.206 259.256C330.985 259.256 334.995 260.749 338.238 263.736C341.481 266.723 343.102 270.691 343.102 275.64C343.102 280.504 341.481 284.515 338.238 287.672C334.995 290.744 330.985 292.28 326.206 292.28ZM388.038 293.048C380.102 293.048 373.062 291.213 366.918 287.544C360.859 283.875 356.081 278.541 352.582 271.544C349.169 264.547 347.462 256.099 347.462 246.2C347.462 236.301 349.169 227.853 352.582 220.856C356.081 213.859 360.859 208.525 366.918 204.856C373.062 201.187 380.102 199.352 388.038 199.352C395.974 199.352 402.971 201.187 409.03 204.856C415.174 208.525 419.953 213.859 423.366 220.856C426.865 227.853 428.614 236.301 428.614 246.2C428.614 256.099 426.865 264.547 423.366 271.544C419.953 278.541 415.174 283.875 409.03 287.544C402.971 291.213 395.974 293.048 388.038 293.048ZM388.038 268.856C390.001 268.856 391.75 268.173 393.286 266.808C394.822 265.443 396.017 263.096 396.87 259.768C397.809 256.44 398.278 251.917 398.278 246.2C398.278 240.397 397.809 235.875 396.87 232.632C396.017 229.304 394.822 226.957 393.286 225.592C391.75 224.227 390.001 223.544 388.038 223.544C386.075 223.544 384.326 224.227 382.79 225.592C381.254 226.957 380.017 229.304 379.078 232.632C378.225 235.875 377.798 240.397 377.798 246.2C377.798 251.917 378.225 256.44 379.078 259.768C380.017 263.096 381.254 265.443 382.79 266.808C384.326 268.173 386.075 268.856 388.038 268.856Z" fill="white"/>
</g>
<defs>
<filter id="filter0_d_491_3" x="0" y="0" width="687" height="409" filterUnits="userSpaceOnUse" color-interpolation-filters="sRGB">
<feFlood flood-opacity="0" result="BackgroundImageFix"/>
<feColorMatrix in="SourceAlpha" type="matrix" values="0 0 0 0 0 0 0 0 0 0 0 0 0 0 0 0 0 0 127 0" result="hardAlpha"/>
<feOffset/>
<feGaussianBlur stdDeviation="20"/>
<feComposite in2="hardAlpha" operator="out"/>
<feColorMatrix type="matrix" values="0 0 0 0 1 0 0 0 0 0.435294 0 0 0 0 0.192157 0 0 0 0.5 0"/>
<feBlend mode="normal" in2="BackgroundImageFix" result="effect1_dropShadow_491_3"/>
<feBlend mode="normal" in="SourceGraphic" in2="effect1_dropShadow_491_3" result="shape"/>
</filter>
<filter id="filter1_i_491_3" x="232.03" y="132.2" width="356.74" height="49.632" filterUnits="userSpaceOnUse" color-interpolation-filters="sRGB">
<feFlood flood-opacity="0" result="BackgroundImageFix"/>
<feBlend mode="normal" in="SourceGraphic" in2="BackgroundImageFix" result="shape"/>
<feColorMatrix in="SourceAlpha" type="matrix" values="0 0 0 0 0 0 0 0 0 0 0 0 0 0 0 0 0 0 127 0" result="hardAlpha"/>
<feOffset dy="4"/>
<feGaussianBlur stdDeviation="2"/>
<feComposite in2="hardAlpha" operator="arithmetic" k2="-1" k3="1"/>
<feColorMatrix type="matrix" values="0 0 0 0 0 0 0 0 0 0 0 0 0 0 0 0 0 0 0.25 0"/>
<feBlend mode="normal" in2="shape" result="effect1_innerShadow_491_3"/>
</filter>
<filter id="filter2_i_491_3" x="225.961" y="199.352" width="202.653" height="97.696" filterUnits="userSpaceOnUse" color-interpolation-filters="sRGB">
<feFlood flood-opacity="0" result="BackgroundImageFix"/>
<feBlend mode="normal" in="SourceGraphic" in2="BackgroundImageFix" result="shape"/>
<feColorMatrix in="SourceAlpha" type="matrix" values="0 0 0 0 0 0 0 0 0 0 0 0 0 0 0 0 0 0 127 0" result="hardAlpha"/>
<feOffset dy="4"/>
<feGaussianBlur stdDeviation="2"/>
<feComposite in2="hardAlpha" operator="arithmetic" k2="-1" k3="1"/>
<feColorMatrix type="matrix" values="0 0 0 0 0 0 0 0 0 0 0 0 0 0 0 0 0 0 0.25 0"/>
<feBlend mode="normal" in2="shape" result="effect1_innerShadow_491_3"/>
</filter>
</defs>
</svg>
