<svg width="34" height="34" viewBox="0 0 34 34" fill="none" xmlns="http://www.w3.org/2000/svg">
<path d="M33.7536 10.4094C34.0411 11.1485 33.1582 12.8732 31.1051 15.5833C30.8176 15.9529 30.4481 16.4456 29.9964 17.0616C29.0519 18.2113 28.5181 18.971 28.3949 19.3406C28.1896 19.8333 28.2717 20.3055 28.6413 20.7572C28.8466 21.0036 29.3188 21.4964 30.058 22.2355H30.1196V22.2971C31.8031 23.8164 32.9324 25.1099 33.5072 26.1775L33.6304 26.4239L33.7536 26.8859V27.471L33.3225 27.933L32.2754 28.1485L27.779 28.2717C27.4915 28.3128 27.1528 28.2717 26.7627 28.1485C26.3726 28.0254 26.0749 27.9022 25.8696 27.779L25.5 27.5326C25.1304 27.2862 24.7198 26.9167 24.2681 26.4239C23.8164 25.9312 23.4161 25.4795 23.067 25.0688C22.718 24.6582 22.3587 24.3194 21.9891 24.0525C21.6196 23.7856 21.2911 23.6932 21.0036 23.7754C20.9626 23.7754 20.9112 23.7959 20.8496 23.8369C20.788 23.878 20.6854 23.9704 20.5417 24.1141C20.3979 24.2578 20.2748 24.4324 20.1721 24.6377C20.0694 24.843 19.9771 25.1407 19.8949 25.5308C19.8128 25.9209 19.7717 26.3828 19.7717 26.9167C19.7717 27.0809 19.7512 27.2349 19.7101 27.3786C19.6691 27.5223 19.628 27.6353 19.587 27.7174L19.5254 27.779C19.279 28.0254 18.9505 28.1485 18.5399 28.1485H16.5688C15.7065 28.2307 14.8339 28.1485 13.9511 27.9022C13.0682 27.6558 12.2983 27.3376 11.6413 26.9475C10.9843 26.5574 10.3889 26.1673 9.85507 25.7772C9.32126 25.3871 8.91063 25.0483 8.62319 24.7609L8.19203 24.3297C8.06884 24.2476 7.90459 24.0833 7.69928 23.8369C7.49396 23.5906 7.07307 23.0568 6.43659 22.2355C5.80012 21.4142 5.17391 20.5314 4.55797 19.5869C3.94203 18.6425 3.22343 17.4004 2.40217 15.8605C1.58092 14.3206 0.821256 12.7295 0.123188 11.0869C0.0410628 10.8816 0 10.7174 0 10.5942C0 10.471 0.0205314 10.3683 0.0615942 10.2862L0.123188 10.2246C0.28744 9.97825 0.615942 9.85506 1.1087 9.85506H5.97464C6.09783 9.85506 6.22101 9.88586 6.3442 9.94745L6.65217 10.1014L6.71377 10.163C6.91908 10.2862 7.0628 10.471 7.14493 10.7174C7.3913 11.2923 7.66848 11.8979 7.97645 12.5344C8.28442 13.1709 8.52053 13.6534 8.68478 13.9819L8.93116 14.4746C9.30072 15.1727 9.63949 15.7784 9.94746 16.2917C10.2554 16.8049 10.5326 17.2053 10.779 17.4927C11.0254 17.7802 11.2717 18.006 11.5181 18.1703C11.7645 18.3345 11.9698 18.4167 12.1341 18.4167C12.2983 18.4167 12.4626 18.3961 12.6268 18.3551L12.6884 18.2627L12.904 17.8623L13.1504 17.0616L13.3043 15.6449V13.4275C13.2633 12.9758 13.2017 12.5549 13.1196 12.1648C13.0374 11.7747 12.9553 11.4976 12.8732 11.3333L12.8116 11.1485C12.5242 10.7379 12.0109 10.471 11.2717 10.3478C11.1486 10.3478 11.1896 10.2041 11.3949 9.91666C11.6002 9.71134 11.8261 9.54709 12.0725 9.4239C12.6884 9.0954 14.0845 8.95168 16.2609 8.99274C17.2053 8.99274 18.006 9.07487 18.663 9.23912C18.8684 9.28018 19.0531 9.35204 19.2174 9.4547C19.3816 9.55736 19.5048 9.70108 19.587 9.88586C19.6691 10.0706 19.7307 10.2554 19.7717 10.4402C19.8128 10.625 19.8333 10.8919 19.8333 11.2409V12.1956C19.7923 12.5241 19.7717 12.9348 19.7717 13.4275V14.9058C19.7717 15.029 19.7615 15.2754 19.7409 15.6449C19.7204 16.0145 19.7101 16.3019 19.7101 16.5072C19.7101 16.7126 19.7307 16.9487 19.7717 17.2156C19.8128 17.4825 19.8847 17.7083 19.9873 17.8931C20.09 18.0779 20.2234 18.2113 20.3877 18.2935C20.4698 18.3345 20.5622 18.3653 20.6649 18.3859C20.7675 18.4064 20.9215 18.3448 21.1268 18.2011C21.3321 18.0574 21.558 17.852 21.8043 17.5851C22.0507 17.3182 22.3587 16.9179 22.7283 16.384C23.0978 15.8502 23.4879 15.2343 23.8986 14.5362C24.5966 13.3043 25.2331 11.9698 25.808 10.5326C25.849 10.4505 25.9004 10.3581 25.962 10.2554C26.0236 10.1528 26.0954 10.0809 26.1775 10.0398H26.2391L26.3007 9.97825L26.5471 9.91666H26.9167L31.9674 9.85506C32.4191 9.814 32.7989 9.83453 33.1069 9.91666C33.4149 9.99878 33.5894 10.1014 33.6304 10.2246L33.7536 10.4094Z" fill="white"/>
</svg>
